<svg width="51" height="37" fill="none" xmlns="http://www.w3.org/2000/svg"><path fill-rule="evenodd" clip-rule="evenodd" d="M31.375 36.475c10.073 0 18.238-8.165 18.238-18.238C49.613 8.166 41.448 0 31.375 0A18.163 18.163 0 0019.8 4.145a16.92 16.92 0 019.038-2.596c9.336 0 16.904 7.51 16.904 16.776 0 9.265-7.568 16.775-16.904 16.775-2.933 0-5.691-.74-8.095-2.044a18.155 18.155 0 0010.633 3.419z" fill="#fff"/><path fill-rule="evenodd" clip-rule="evenodd" d="M41.125 31.991a17.364 17.364 0 006.274-11.496c1.067-9.3-5.397-17.727-14.55-19.188.254.018.51.042.766.071 9.276 1.064 15.939 9.389 14.883 18.594-.584 5.086-3.402 9.377-7.373 12.02z" fill="#103C5F"/><path d="M11.27 29l-.175-.07a4.928 4.928 0 00-3.465-.14c-.49.14-.992.21-1.505.21a5.23 5.23 0 01-1.995-.385 5.876 5.876 0 01-1.68-1.12 5.407 5.407 0 01-1.12-1.645 5.237 5.237 0 01-.385-1.995c0-.677.163-1.295.49-1.855A3.49 3.49 0 012.8 20.635l6.23-3.57V15.07c0-.42-.082-.805-.245-1.155a2.768 2.768 0 00-.665-.945 2.612 2.612 0 00-.945-.595 2.378 2.378 0 00-1.155-.21c-.793.047-1.458.35-1.995.91-.537.56-.805 1.237-.805 2.03 0 .7.257 1.33.77 1.89l.35.35H.945v-.665c0-.723.128-1.4.385-2.03.28-.63.653-1.178 1.12-1.645a5.33 5.33 0 011.68-1.085c.63-.28 1.295-.42 1.995-.42.7 0 1.365.14 1.995.42a4.93 4.93 0 011.645 1.085 4.93 4.93 0 011.085 1.645c.28.63.42 1.307.42 2.03V29zm-5.11-.665c.817-.023 1.493-.315 2.03-.875.56-.56.84-1.248.84-2.065v-5.74l-3.955 2.31a3.562 3.562 0 00-1.365 1.33 3.614 3.614 0 00-.49 1.855v.28c0 .817.28 1.517.84 2.1.583.56 1.283.828 2.1.805zm7.825-14.105c0-1.073-.374-1.983-1.12-2.73h3.395V29h-2.275V14.23zm2.345-5.215a3.06 3.06 0 00-.49.455c-.14.14-.28.292-.42.455l-.28.385-.315-.385a8.076 8.076 0 00-.42-.455 3.057 3.057 0 00-.49-.455l-.385-.28.385-.315a2.75 2.75 0 00.49-.385c.14-.163.28-.338.42-.525l.315-.385.28.385c.14.187.28.362.42.525.14.14.303.268.49.385l.385.315-.385.28zm5.127 16.415c0 .817.28 1.505.84 2.065.56.56 1.248.84 2.065.84V29a5.23 5.23 0 01-1.995-.385 5.407 5.407 0 01-1.645-1.12 5.409 5.409 0 01-1.12-1.645 5.238 5.238 0 01-.385-1.995v-14c0-1.05-.385-1.96-1.155-2.73h3.395V25.43zM34.307 29l-.175-.07a4.928 4.928 0 00-3.465-.14c-.49.14-.992.21-1.505.21a5.23 5.23 0 01-1.995-.385 5.876 5.876 0 01-1.68-1.12 5.407 5.407 0 01-1.12-1.645 5.236 5.236 0 01-.385-1.995c0-.677.163-1.295.49-1.855a3.491 3.491 0 011.365-1.365l6.23-3.57V15.07c0-.42-.082-.805-.245-1.155a2.768 2.768 0 00-.665-.945 2.612 2.612 0 00-.945-.595 2.378 2.378 0 00-1.155-.21c-.793.047-1.458.35-1.995.91-.537.56-.805 1.237-.805 2.03 0 .7.257 1.33.77 1.89l.35.35h-3.395v-.665c0-.723.128-1.4.385-2.03.28-.63.653-1.178 1.12-1.645a5.33 5.33 0 011.68-1.085c.63-.28 1.295-.42 1.995-.42.7 0 1.365.14 1.995.42a4.93 4.93 0 011.645 1.085 4.93 4.93 0 011.085 1.645c.28.63.42 1.307.42 2.03V29zm-5.11-.665c.817-.023 1.493-.315 2.03-.875.56-.56.84-1.248.84-2.065v-5.74l-3.955 2.31a3.562 3.562 0 00-1.365 1.33 3.614 3.614 0 00-.49 1.855v.28c0 .817.28 1.517.84 2.1.583.56 1.283.828 2.1.805z" fill="#fff"/></svg>