<svg width="15" height="15" fill="none" xmlns="http://www.w3.org/2000/svg"><path d="M12.944 7.579h-.765a4.531 4.531 0 00-4.526-4.527v-.764a5.295 5.295 0 015.291 5.29zM7.653 3.607v.765a3.208 3.208 0 013.205 3.206h.765c0-2.19-1.78-3.97-3.97-3.97zM7.5 0C3.364 0 0 3.364 0 7.5S3.364 15 7.5 15a.462.462 0 100-.926A6.582 6.582 0 01.925 7.5 6.582 6.582 0 017.5.925 6.582 6.582 0 0114.074 7.5c0 1.515-.806 3.016-1.96 3.653-.42.23-.874.345-1.359.35.291-.174.543-.408.73-.703.038-.055.086-.105.11-.165.15-.362.164-.773.255-1.156.111-.488-2.139-1.443-2.335-.833-.07.226-.179.94-.32 1.129-.127.168-.438.088-.633-.077-.513-.437-1.085-1.08-1.588-1.588h.001l-.042-.042-.043-.043v.001c-.508-.503-1.15-1.074-1.587-1.588-.166-.195-.245-.506-.077-.632.188-.143.902-.25 1.128-.321.61-.195-.344-2.447-.834-2.335-.382.09-.793.104-1.155.254-.061.026-.11.073-.165.11-1.285.815-1.45 2.793-.196 4.267.478.564.976 1.11 1.49 1.642l-.003.002.044.041.04.044.003-.003c.532.514 1.164 1.27 2.19 1.954 2.16 1.442 3.817 1.04 4.793.504C14.246 11.037 15 9.055 15 7.502 15 3.364 11.636 0 7.5 0z" fill="#fff"/></svg>